<svg width="160" height="44" viewBox="0 0 160 44" fill="none" xmlns="http://www.w3.org/2000/svg">
<path d="M38.4506 12.0691C38.8602 12.4225 39.3501 12.5987 39.9197 12.5987C40.4433 12.5987 40.8764 12.4225 41.218 12.0691C41.5591 11.7163 41.7299 11.2895 41.7299 10.7884C41.7299 10.2643 41.5533 9.81457 41.2004 9.43874C40.8471 9.0629 40.3974 8.87498 39.8512 8.87498C39.2816 8.87498 38.8034 9.05749 38.4163 9.42161C38.0288 9.78618 37.8354 10.2305 37.8354 10.7537C37.8354 11.2783 38.0405 11.7163 38.4506 12.0691Z" fill="#023E46"/>
<path d="M33.5542 43.8972H35.09V40.4156H38.4014V39.2038H35.09V37.1502H38.4014V35.9497H33.5542V43.8972Z" fill="#023E46"/>
<path d="M41.3578 35.9498H39.822V43.8974H45.2153V42.6969H41.3578V35.9498Z" fill="#023E46"/>
<path d="M51.9559 41.9063C51.4309 42.4182 50.7608 42.6738 49.9446 42.6738C49.4061 42.6738 48.9235 42.5584 48.4967 42.3272C48.07 42.0956 47.7374 41.7693 47.4981 41.3489C47.2597 40.9271 47.1398 40.4534 47.1398 39.9262C47.1398 39.3953 47.2552 38.9203 47.4873 38.5008C47.7185 38.0821 48.0492 37.7559 48.4796 37.5224C48.9104 37.2894 49.3944 37.1727 49.9334 37.1727C50.4715 37.1727 50.9563 37.2885 51.3867 37.5202C51.8166 37.7509 52.151 38.0785 52.388 38.5008C52.6251 38.9239 52.7436 39.3994 52.7436 39.9262C52.7436 40.7342 52.4809 41.3939 51.9559 41.9063ZM52.1663 36.3566C51.5079 36.0173 50.7675 35.8474 49.9446 35.8474C49.0875 35.8474 48.3291 36.0245 47.6689 36.3791C47.0091 36.7338 46.4914 37.2318 46.116 37.8726C45.7401 38.5134 45.5527 39.1979 45.5527 39.9262C45.5527 40.681 45.7401 41.3705 46.116 41.9937C46.4914 42.6179 47.0159 43.1082 47.6892 43.4646C48.362 43.8215 49.1105 44 49.9334 44C50.7675 44 51.5174 43.8242 52.183 43.4732C52.8491 43.1226 53.3723 42.6291 53.7535 41.9937C54.1347 41.3588 54.3254 40.6693 54.3254 39.9262C54.3254 39.1637 54.1298 38.4634 53.7395 37.8239C53.3484 37.1849 52.8243 36.6955 52.1663 36.3566Z" fill="#023E46"/>
<path d="M63.3448 40.8708L61.2511 35.9498H59.9537L57.8713 40.8537L55.892 35.9498H54.3044L57.5815 43.9996H58.0817L60.5968 38.1056L63.0996 43.9996H63.617L66.8887 35.9498H65.3182L63.3448 40.8708Z" fill="#023E46"/>
<path d="M68.2759 28.666C68.2759 29.2356 68.2592 29.7025 68.2254 30.0666C68.1911 30.4307 68.1105 30.7272 67.9861 30.9548C67.8608 31.1824 67.6535 31.3491 67.3705 31.4672C66.2696 31.9259 62.9709 32.1197 61.8024 31.4501C61.568 31.3162 61.3864 31.1486 61.2729 30.9206C61.1588 30.6934 61.0899 30.3798 61.0674 29.9814C61.0448 29.583 61.0336 29.0756 61.0336 28.4609V22.4146C61.0336 22.0956 61.1129 21.7197 61.2729 21.2867C61.4315 20.854 61.6762 20.4444 62.007 20.0569C62.3373 19.6698 62.7586 19.3394 63.271 19.0659C63.7834 18.7928 64.4035 18.6563 65.1335 18.6563C65.8162 18.6563 66.3633 18.805 66.773 19.1001C67.1826 19.3967 67.4949 19.7779 67.7126 20.2448C67.9284 20.7121 68.0767 21.2299 68.156 21.7995C68.2367 22.3687 68.2759 22.9383 68.2759 23.5079V28.666ZM38.5193 28.666C38.5193 29.1901 38.5067 29.6286 38.4851 29.9814C38.4621 30.3343 38.376 30.6299 38.2282 30.8696C38.08 31.1089 37.8411 31.2982 37.5103 31.4334C36.7889 31.7281 33.8218 31.7466 32.7353 31.3987C32.3135 31.2639 32.012 31.0796 31.83 30.8525C31.6479 30.6249 31.5339 30.323 31.4888 29.9472C31.4424 29.5713 31.4199 29.0986 31.4199 28.529L31.3671 21.9707C31.3671 21.9707 31.2256 20.2524 32.6105 20.1186C34.108 19.9739 35.5527 19.6972 36.9272 19.3228C37.6086 19.1371 38.3823 19.3309 38.4504 20.8081C38.4779 21.402 38.5193 22.1866 38.5193 23.1659V28.666ZM36.5716 9.43831C35.2567 7.91468 30.3113 8.10034 28.5695 13.103C28.2708 13.9605 28.1721 15.0971 28.1081 15.8875C28.0396 16.7365 27.5853 17.1254 26.8125 17.001C20.4318 15.9749 15.6018 12.5297 13.2886 10.7366C16.0038 8.63256 22.6801 4.1563 30.3338 4.1563C37.9898 4.1563 44.667 8.63526 47.3804 10.7384C44.886 12.6771 39.0358 16.6585 32.1215 17.2268C31.4415 17.2827 31.2824 16.691 31.3194 16.0583C31.3505 15.5211 31.3712 14.7897 31.3712 14.0935C31.3712 10.0237 33.2071 10.4635 33.2071 10.7537C33.2071 11.2783 33.4122 11.7163 33.8218 12.0692C34.2314 12.4225 34.7213 12.5987 35.2909 12.5987C35.8146 12.5987 36.2472 12.4225 36.5892 12.0692C36.9304 11.7163 37.1012 11.2891 37.1012 10.7884C37.1012 10.2643 36.9087 9.82902 36.5716 9.43831ZM73.8102 31.9453C73.7418 31.8318 73.6394 31.7637 73.5029 31.7403C73.0243 31.6497 72.6489 31.5528 72.3749 31.4501C72.1023 31.3478 71.9031 31.1891 71.7774 30.9715C71.6521 30.7561 71.5728 30.4654 71.539 30.1008C71.5052 29.7367 71.4872 29.2581 71.4872 28.666V22.3461C71.4872 20.6377 71.06 19.2543 70.206 18.1948C69.3529 17.1362 67.9568 16.6067 66.0218 16.6067C65.1556 16.6067 64.285 16.823 63.4076 17.2556C62.531 17.6887 61.7965 18.2921 61.2048 19.0659C61.1354 19.1808 61.0786 19.1808 61.0336 19.0659V10.0579C61.011 9.9214 60.9479 9.79071 60.8456 9.66498C60.7433 9.54015 60.5324 9.52303 60.2134 9.61406C59.3711 9.86507 58.4707 10.0354 57.5149 10.1264C56.5587 10.2175 55.7493 10.2855 55.0891 10.3315C54.953 10.3315 54.8561 10.3883 54.7993 10.5018C54.7421 10.6163 54.7187 10.7303 54.7304 10.8439C54.7421 10.9583 54.7759 11.0714 54.8331 11.1855C54.8899 11.2995 54.9746 11.3558 55.0891 11.3558C55.7263 11.4248 56.2279 11.5158 56.5924 11.6293C56.957 11.7434 57.2301 11.9601 57.4122 12.2787C57.5947 12.5978 57.7078 13.0471 57.7533 13.628C57.7988 14.2084 57.8227 14.9889 57.8227 15.9682V28.666C57.8227 29.2356 57.8056 29.7025 57.7713 30.0666C57.7362 30.4307 57.6515 30.7272 57.5149 30.9548C57.3779 31.1824 57.154 31.3243 56.8827 31.4672C56.0071 31.9259 54.7322 31.528 55.3951 30.5276C55.7736 29.9566 55.9417 29.2239 55.9417 28.3582C55.9417 27.6984 55.834 27.1176 55.6173 26.616C55.4005 26.1158 55.1049 25.6656 54.7286 25.2668C54.3532 24.8684 53.9093 24.5214 53.3965 24.2253C52.8845 23.9288 52.3316 23.644 51.7399 23.3704C51.4664 23.2569 51.1081 23.1145 50.6642 22.9437C50.2199 22.7729 49.8382 22.6309 49.5196 22.5165C48.7679 22.2434 48.164 21.9473 47.7089 21.6283C47.2533 21.3096 47.0257 20.854 47.0257 20.2619C47.0257 19.5562 47.2988 18.9924 47.845 18.5706C48.3921 18.1497 49.0865 17.9388 49.9288 17.9388C51.1816 17.9388 52.0928 18.2633 52.6624 18.9122C53.2311 19.5616 53.6407 20.4895 53.8922 21.6968C53.9147 21.7652 53.972 21.8162 54.0625 21.8504C54.1536 21.8847 54.2568 21.8964 54.3708 21.8847C54.4843 21.873 54.5862 21.845 54.6777 21.7995C54.7687 21.754 54.8147 21.6968 54.8147 21.6283C54.8147 21.3781 54.8029 21.0194 54.78 20.5526C54.7574 20.0857 54.7462 19.6355 54.7462 19.2029C54.7462 18.7928 54.7745 18.4057 54.8318 18.0411C54.8881 17.6775 54.9512 17.3701 55.0197 17.1187C55.0422 17.0511 55.0075 16.9943 54.9165 16.9483C54.8255 16.9028 54.7236 16.874 54.6096 16.8627C54.4947 16.8519 54.382 16.8573 54.2676 16.8798C54.1536 16.9028 54.0855 16.9596 54.0625 17.0511C53.972 17.3701 53.8516 17.558 53.7043 17.6144C53.556 17.6716 53.4361 17.6775 53.3456 17.6315C52.753 17.2444 52.2126 16.9767 51.7228 16.8284C51.2329 16.6806 50.6696 16.6067 50.032 16.6067C49.3709 16.6067 48.6999 16.6865 48.0162 16.846C47.333 17.0055 46.7121 17.2615 46.1542 17.6144C45.5963 17.9677 45.1407 18.4291 44.7878 18.9978C44.4345 19.5675 44.2578 20.2619 44.2578 21.0816C44.2578 21.7882 44.3723 22.3804 44.5994 22.8581C44.8275 23.3366 45.1298 23.7355 45.5052 24.0541C45.8811 24.3731 46.3137 24.6408 46.8035 24.8571C47.2925 25.073 47.7878 25.2839 48.2893 25.4889C48.6309 25.6255 48.9666 25.7625 49.297 25.8981C49.6268 26.0356 49.9517 26.1721 50.2713 26.3091C50.954 26.6282 51.552 26.9977 52.0648 27.419C52.5772 27.8408 52.8332 28.4154 52.8332 29.1446C52.8332 29.9643 52.5772 30.6019 52.0648 31.0575C51.552 31.5127 50.8855 31.7403 50.0658 31.7403C49.3145 31.7403 48.6701 31.6551 48.1361 31.4843C47.5998 31.3135 47.1447 31.0576 46.7684 30.716C46.393 30.3744 46.0798 29.9526 45.8297 29.4519C45.5791 28.9508 45.3736 28.3708 45.2146 27.7097C45.192 27.6187 45.1298 27.5556 45.0266 27.5213C44.9243 27.4875 44.8157 27.4758 44.7022 27.4875C44.5882 27.4993 44.4854 27.5272 44.3948 27.5727C44.3038 27.6187 44.2578 27.6863 44.2578 27.7778C44.2578 27.8922 44.2696 28.0743 44.2921 28.3239C44.3151 28.5754 44.3435 28.8602 44.3782 29.1784C44.412 29.4979 44.4462 29.8214 44.48 30.1518C44.5147 30.4825 44.5327 30.7836 44.5314 31.0575C44.5264 32.0742 42.9199 31.5695 42.6355 31.4334C42.3507 31.2968 42.1403 31.1035 42.0033 30.8525C41.8667 30.6019 41.7865 30.2833 41.7644 29.8958C41.741 29.5087 41.7302 29.0306 41.7302 28.4609C41.7302 28.4609 41.7329 19.4093 41.7302 18.6932C41.7275 17.9767 42.0461 17.4305 42.4616 17.2264C47.2722 14.8645 50.4348 12.0065 50.6525 11.8037L51.8012 10.7366L50.6525 9.66994C50.2816 9.32565 41.4521 1.24333 30.3338 1.24333C21.1046 1.24333 13.4572 6.80834 10.9115 8.89753C5.60783 5.08372 2.52722 0.0536282 2.49522 0L0 1.5029C0.136996 1.73138 3.14731 6.65828 8.50412 10.7366C3.14731 14.8154 0.136996 19.7419 0 19.9708L2.49612 21.4719C2.52812 21.4187 5.5871 16.4021 10.911 12.5752C13.1579 14.4193 19.3701 19.0181 27.1505 20.0113C27.8805 20.1046 28.1419 20.8324 28.1513 21.4813C28.2 24.9044 28.209 28.6322 28.209 28.6322C28.209 29.2013 28.1919 29.6687 28.1581 30.0328C28.1234 30.3969 28.0265 30.6934 27.8674 30.9206C27.7075 31.1486 27.4628 31.3252 27.1329 31.4501C26.8026 31.5758 26.3298 31.6722 25.7147 31.7403C25.6723 31.7466 25.6417 31.7628 25.6056 31.7745H25.5818V31.7822C25.4939 31.8155 25.4195 31.8597 25.3731 31.9282C25.3051 32.0314 25.2708 32.1499 25.2708 32.2869C25.2708 32.4014 25.3051 32.5091 25.3731 32.6118C25.4227 32.6853 25.4961 32.724 25.5818 32.7439L73.5376 32.765C73.6503 32.765 73.7418 32.7137 73.8102 32.6118C73.8792 32.5091 73.913 32.4014 73.913 32.2869C73.913 32.1738 73.8792 32.0598 73.8102 31.9453Z" fill="#023E46"/>
</svg>
