<svg width="35" height="12" viewBox="0 0 35 12" fill="none" xmlns="http://www.w3.org/2000/svg">
<path fill-rule="evenodd" clip-rule="evenodd" d="M4.72182 6.55947L4.11998 6.00035L4.72182 5.44148C4.91614 5.26109 9.54227 1.02643 15.3676 1.02643C20.2032 1.02643 24.21 3.94217 25.5438 5.03678C28.3226 3.03857 29.9366 0.403098 29.9534 0.375L31.2607 1.16243C31.189 1.28214 29.6117 3.86355 26.8051 6.00035C29.6117 8.1374 31.189 10.7186 31.2607 10.8385L29.9529 11.625C29.9362 11.5971 28.3334 8.96875 25.544 6.96369C19.363 12.2728 11.6644 12.9726 4.72182 6.55947ZM24.2983 6.00035C23.0863 6.93984 20.5557 8.74491 17.2126 9.28254C16.4072 9.41216 14.9335 9.44213 14.431 9.40083C10.8083 9.10309 7.7431 7.01705 6.43623 6.0013C7.85785 4.89937 11.3563 2.55265 15.3676 2.55265C19.3777 2.55265 22.8757 4.89795 24.2983 6.00035Z" fill="white"/>
<path fill-rule="evenodd" clip-rule="evenodd" d="M17.2126 9.28254C20.5557 8.74491 23.0863 6.93984 24.2983 6.00035C22.8757 4.89795 19.3777 2.55265 15.3676 2.55265C11.3563 2.55265 7.85785 4.89937 6.43623 6.0013C7.7431 7.01705 10.8083 9.10309 14.431 9.40083C14.9335 9.44213 16.4072 9.41216 17.2126 9.28254ZM10.3452 6.97595C10.6436 6.97595 10.9003 6.88363 11.1149 6.69852C11.3298 6.51365 11.4372 6.28415 11.4372 6.00931C11.4372 5.73519 11.3359 5.50238 11.1329 5.31137C10.93 5.12059 10.6795 5.02496 10.3811 5.02496C10.0949 5.02496 9.85927 5.12342 9.67416 5.32034C9.48928 5.51726 9.39673 5.7529 9.39673 6.02749C9.39673 6.29005 9.48622 6.51365 9.66495 6.69852C9.84393 6.88363 10.0708 6.97595 10.3452 6.97595Z" fill="white"/>
</svg>
