<svg width="321" height="249" viewBox="0 0 321 249" fill="none" xmlns="http://www.w3.org/2000/svg">
<g opacity="0.9">
<path d="M64.8891 72.6798C63.8963 74.9597 61.3109 75.8569 59.1147 74.685C56.9185 73.5132 55.9439 70.7148 56.9367 68.4348C57.9294 66.1549 60.5148 65.2578 62.711 66.4296C64.9053 67.601 65.8818 70.3999 64.8891 72.6798Z" stroke="#0B1332" stroke-width="3.45957" stroke-miterlimit="10" stroke-linecap="round" stroke-linejoin="round"/>
<path d="M15.3482 104.076C16.3559 100.909 17.5993 97.7479 19.7473 95.3511C21.8951 92.9563 25.1196 91.4334 28.266 92.1677" stroke="#0B1332" stroke-width="3.45957" stroke-miterlimit="10" stroke-linecap="round" stroke-linejoin="round"/>
<path d="M15.4072 105.585C17.6169 105.819 19.825 106.05 22.0347 106.284" stroke="#0B1332" stroke-width="3.45957" stroke-miterlimit="10" stroke-linecap="round" stroke-linejoin="round"/>
<path d="M21.5991 106.487C20.7076 108.532 19.4763 110.396 17.9743 111.971" stroke="#0B1332" stroke-width="3.45957" stroke-miterlimit="10" stroke-linecap="round" stroke-linejoin="round"/>
<path d="M17.0062 113.253C20.4218 116.752 24.7966 119.223 29.414 120.258" stroke="#0B1332" stroke-width="3.45957" stroke-miterlimit="10" stroke-linecap="round" stroke-linejoin="round"/>
<path d="M29.4672 84.1147C34.3346 65.4794 47.088 49.7269 63.6105 41.9362C68.7046 39.5348 74.3353 37.8431 79.9878 38.7446" stroke="#0B1332" stroke-width="3.45957" stroke-miterlimit="10" stroke-linecap="round" stroke-linejoin="round"/>
<path d="M84.4368 37.7919C88.4816 36.4303 92.6945 35.552 96.972 35.179C112.656 33.8132 128.469 39.2322 143.306 45.75C150.674 48.9861 157.961 52.5269 164.768 56.9835C177.058 65.0315 187.485 75.8632 197.788 86.591C205.479 94.6001 213.589 103.421 215.378 114.416" stroke="#0B1332" stroke-width="3.45957" stroke-miterlimit="10" stroke-linecap="round" stroke-linejoin="round"/>
<path d="M29.1276 106.297C34.8582 106.596 40.6737 106.443 46.0607 104.657C50.77 103.098 55.0081 100.336 58.8765 97.1617C73.4174 85.2331 83.1211 66.9624 85.4011 47.2212" stroke="#0B1332" stroke-width="3.45957" stroke-miterlimit="10" stroke-linecap="round" stroke-linejoin="round"/>
<path d="M92.0781 50.2447C92.4654 59.3776 89.9238 68.4679 84.9434 75.7516" stroke="#0B1332" stroke-width="3.45957" stroke-miterlimit="10" stroke-linecap="round" stroke-linejoin="round"/>
<path d="M98.5242 52.7295C98.4413 56.9522 97.8015 61.1356 96.6235 65.1447" stroke="#0B1332" stroke-width="3.45957" stroke-miterlimit="10" stroke-linecap="round" stroke-linejoin="round"/>
<path d="M77.8824 105.967C98.6768 100.693 120.287 98.3479 141.96 99.0117" stroke="#0B1332" stroke-width="3.45957" stroke-miterlimit="10" stroke-linecap="round" stroke-linejoin="round"/>
<path d="M142.604 98.1541C142.022 101.643 140.932 105.015 139.38 108.124" stroke="#0B1332" stroke-width="3.45957" stroke-miterlimit="10" stroke-linecap="round" stroke-linejoin="round"/>
<path d="M96.3318 135.563C108.733 128.745 121.133 121.927 133.534 115.109" stroke="#0B1332" stroke-width="3.45957" stroke-miterlimit="10" stroke-linecap="round" stroke-linejoin="round"/>
<path d="M80.8153 117.382C80.631 120.351 80.449 123.319 80.2648 126.288C80.2402 126.7 80.2211 127.141 80.4278 127.505C80.6142 127.832 80.9505 128.028 81.2695 128.208C84.7698 130.179 88.2704 132.148 91.7708 134.12" stroke="#0B1332" stroke-width="3.45957" stroke-miterlimit="10" stroke-linecap="round" stroke-linejoin="round"/>
<path d="M83.373 118.606C96.1857 114.026 109.429 110.623 122.909 108.45" stroke="#0B1332" stroke-width="3.45957" stroke-miterlimit="10" stroke-linecap="round" stroke-linejoin="round"/>
<path d="M79.8956 126.291C91.6119 121.324 103.907 117.73 116.493 115.596" stroke="#0B1332" stroke-width="3.45957" stroke-miterlimit="10" stroke-linecap="round" stroke-linejoin="round"/>
<path d="M33.3544 127.431C54.8314 152.214 85.4551 168.313 116.79 171.29" stroke="#0B1332" stroke-width="3.45957" stroke-miterlimit="10" stroke-linecap="round" stroke-linejoin="round"/>
<path d="M124.804 169.892C153.402 175.664 183.448 169.804 207.177 153.828" stroke="#0B1332" stroke-width="3.45957" stroke-miterlimit="10" stroke-linecap="round" stroke-linejoin="round"/>
<path d="M217.932 119.044C225.851 121.417 234.211 120.175 241.929 117.89C249.647 115.606 257.033 112.304 264.886 110.482C279.938 106.993 297.306 109.669 309.248 120.65" stroke="#0B1332" stroke-width="3.45957" stroke-miterlimit="10" stroke-linecap="round" stroke-linejoin="round"/>
<path d="M306.086 122.959C297.269 118.663 286.65 119.39 278.878 124.821C271.106 130.251 266.43 140.21 266.899 150.338" stroke="#0B1332" stroke-width="3.45957" stroke-miterlimit="10" stroke-linecap="round" stroke-linejoin="round"/>
<path d="M267.502 158.85C267.196 160.117 267.475 161.487 267.838 162.773C270.741 173.061 278.73 181.003 286.961 187.423" stroke="#0B1332" stroke-width="3.45957" stroke-miterlimit="10" stroke-linecap="round" stroke-linejoin="round"/>
<path d="M214.643 151.633C221.018 150.068 227.933 153.03 233.315 157.341C238.698 161.652 242.998 167.249 247.896 172.155C252.194 176.458 256.972 180.242 262.088 183.392C268.64 187.428 276.129 190.481 283.481 189.589" stroke="#0B1332" stroke-width="3.45957" stroke-miterlimit="10" stroke-linecap="round" stroke-linejoin="round"/>
<path d="M259.274 120.059C252.95 124.797 247.896 131.583 245.988 139.572C244.079 147.561 245.596 156.754 250.769 163.364" stroke="#0B1332" stroke-width="3.45957" stroke-miterlimit="10" stroke-linecap="round" stroke-linejoin="round"/>
<path d="M266.315 124.167C262.344 125.551 259.25 128.917 257.377 132.848C255.502 136.778 254.742 141.248 254.42 145.708" stroke="#0B1332" stroke-width="3.45957" stroke-miterlimit="10" stroke-linecap="round" stroke-linejoin="round"/>
<path d="M205.974 111.825C200.007 102.634 188.608 97.6557 178.743 100.134C168.879 102.615 161.346 112.506 161.248 123.408C161.15 134.309 168.645 145.249 178.598 148.437C183.551 150.024 188.752 149.807 193.837 149.578" stroke="#0B1332" stroke-width="3.45957" stroke-miterlimit="10" stroke-linecap="round" stroke-linejoin="round"/>
<path d="M230.212 137.751C223.585 132.808 216.338 128.804 208.752 125.893C203.949 124.05 198.432 122.695 194.094 125.146C192.465 126.065 191.019 127.8 191.329 129.764C191.546 131.144 192.566 132.26 193.594 133.191C197.937 137.127 203.344 139.576 208.857 140.962C214.369 142.35 220.019 142.728 225.63 142.934" stroke="#0B1332" stroke-width="3.45957" stroke-miterlimit="10" stroke-linecap="round" stroke-linejoin="round"/>
<path d="M79.5322 165.783C81.0802 182.533 88.1048 199.648 101.016 209.932" stroke="#0B1332" stroke-width="3.45957" stroke-miterlimit="10" stroke-linecap="round" stroke-linejoin="round"/>
<path d="M101.095 208.309C97.9204 196.959 97.8118 184.859 100.783 173.769" stroke="#0B1332" stroke-width="3.45957" stroke-miterlimit="10" stroke-linecap="round" stroke-linejoin="round"/>
<path d="M102.324 177.411C103.798 179.328 105.273 181.245 106.745 183.161C104.456 188.216 102.638 193.526 101.32 198.992" stroke="#0B1332" stroke-width="3.45957" stroke-miterlimit="10" stroke-linecap="round" stroke-linejoin="round"/>
<path d="M120.834 174.731C127.837 183.841 136.967 191.162 147.106 195.803C151.227 197.69 155.536 199.145 159.938 199.728C164.382 200.317 168.844 200.012 173.245 199.515C189.551 197.674 205.992 192.917 218.19 181.858C221.801 178.585 225.066 174.661 226.52 169.829C227.974 164.998 227.308 159.122 223.891 155.264" stroke="#0B1332" stroke-width="3.45957" stroke-miterlimit="10" stroke-linecap="round" stroke-linejoin="round"/>
<path d="M131.183 174.363C136.195 179.851 141.685 184.855 147.55 189.284" stroke="#0B1332" stroke-width="3.45957" stroke-miterlimit="10" stroke-linecap="round" stroke-linejoin="round"/>
<path d="M146.357 173.612C150.876 177.791 155.394 181.971 159.912 186.15" stroke="#0B1332" stroke-width="3.45957" stroke-miterlimit="10" stroke-linecap="round" stroke-linejoin="round"/>
<path d="M164.953 172.224C169.282 174.985 173.613 177.747 177.942 180.508" stroke="#0B1332" stroke-width="3.45957" stroke-miterlimit="10" stroke-linecap="round" stroke-linejoin="round"/>
<path d="M182.623 165.734C186.355 168.105 190.087 170.477 193.82 172.848" stroke="#0B1332" stroke-width="3.45957" stroke-miterlimit="10" stroke-linecap="round" stroke-linejoin="round"/>
<path d="M198.492 160.824C201.535 162.714 207.467 165.785 210.512 167.673" stroke="#0B1332" stroke-width="3.45957" stroke-miterlimit="10" stroke-linecap="round" stroke-linejoin="round"/>
<path d="M84.0364 34.1422C95.0419 24.5596 110.106 20.9969 124.788 21.5025C139.468 22.0077 153.96 26.2499 168.168 30.8684C182.613 35.5632 197.152 40.7765 209.887 49.5909C215.085 53.1887 219.973 57.3978 223.88 62.4926C227.525 67.2435 230.248 72.6621 232.805 78.1039C234.976 82.7228 237.091 87.5902 237.088 92.6359C237.084 97.9599 234.536 103.081 230.431 106.015C226.326 108.949 220.765 109.621 215.909 107.774" stroke="#0B1332" stroke-width="3.45957" stroke-miterlimit="10" stroke-linecap="round" stroke-linejoin="round"/>
<path d="M115.143 34.1173C120.8 31.2752 126.827 29.1941 133.043 27.9443" stroke="#0B1332" stroke-width="3.45957" stroke-miterlimit="10" stroke-linecap="round" stroke-linejoin="round"/>
<path d="M132.802 39.2318C139.505 37.7099 146.323 36.6391 153.2 36.0276" stroke="#0B1332" stroke-width="3.45957" stroke-miterlimit="10" stroke-linecap="round" stroke-linejoin="round"/>
<path d="M154.613 47.652C160.512 45.5249 166.736 44.2774 173.048 43.9539" stroke="#0B1332" stroke-width="3.45957" stroke-miterlimit="10" stroke-linecap="round" stroke-linejoin="round"/>
<path d="M175.232 62.8274C181.094 61.2017 187.195 60.3764 193.335 60.3794" stroke="#0B1332" stroke-width="3.45957" stroke-miterlimit="10" stroke-linecap="round" stroke-linejoin="round"/>
<path d="M192.789 81.1155C200.395 78.7756 208.164 76.9342 216.033 75.6062" stroke="#0B1332" stroke-width="3.45957" stroke-miterlimit="10" stroke-linecap="round" stroke-linejoin="round"/>
<path d="M105.309 58.2953C131.886 56.2034 159.856 69.7718 176.122 92.647" stroke="#0B1332" stroke-width="3.45957" stroke-miterlimit="10" stroke-linecap="round" stroke-linejoin="round"/>
<path d="M53.6309 126.851C68.897 139.762 86.8351 149.658 105.963 153.827C125.09 157.996 145.417 156.188 162.21 147.207" stroke="#0B1332" stroke-width="3.45957" stroke-miterlimit="10" stroke-linecap="round" stroke-linejoin="round"/>
</g>
</svg>
